<mxfile host="app.diagrams.net" modified="2022-08-31T20:48:32.190Z" agent="5.0 (Macintosh; Intel Mac OS X 10_15_7) AppleWebKit/605.1.15 (KHTML, like Gecko) Version/15.6 Safari/605.1.15" etag="UbLUQWX3aJnZMNIlKfQr" version="20.2.7" type="github">
  <diagram id="B2QsUjet5WNCfd_3KvjM" name="Page-1">
    <mxGraphModel dx="566" dy="1159" grid="1" gridSize="10" guides="1" tooltips="1" connect="1" arrows="1" fold="1" page="0" pageScale="1" pageWidth="850" pageHeight="1100" math="0" shadow="0">
      <root>
        <mxCell id="0" />
        <mxCell id="1" parent="0" />
        <mxCell id="d_pu53hUmGRTe69JMyzy-1" value="user" style="rounded=1;arcSize=10;whiteSpace=wrap;html=1;align=center;sketch=1;fillColor=#d5e8d4;strokeColor=#82b366;" vertex="1" parent="1">
          <mxGeometry x="40" y="80" width="80" height="40" as="geometry" />
        </mxCell>
        <mxCell id="d_pu53hUmGRTe69JMyzy-2" value="&lt;font style=&quot;font-size: 18px;&quot;&gt;entities&lt;/font&gt;" style="text;html=1;align=center;verticalAlign=middle;resizable=0;points=[];autosize=1;strokeColor=#82b366;fillColor=#d5e8d4;sketch=1;" vertex="1" parent="1">
          <mxGeometry x="40" y="40" width="80" height="30" as="geometry" />
        </mxCell>
        <mxCell id="d_pu53hUmGRTe69JMyzy-3" value="beat" style="rounded=1;arcSize=10;whiteSpace=wrap;html=1;align=center;sketch=1;fillColor=#d5e8d4;strokeColor=#82b366;" vertex="1" parent="1">
          <mxGeometry x="40" y="130" width="80" height="40" as="geometry" />
        </mxCell>
        <mxCell id="d_pu53hUmGRTe69JMyzy-4" value="playlist" style="rounded=1;arcSize=10;whiteSpace=wrap;html=1;align=center;sketch=1;fillColor=#d5e8d4;strokeColor=#82b366;" vertex="1" parent="1">
          <mxGeometry x="40" y="230" width="80" height="40" as="geometry" />
        </mxCell>
        <mxCell id="d_pu53hUmGRTe69JMyzy-6" value="subscriber" style="rounded=1;arcSize=10;whiteSpace=wrap;html=1;align=center;sketch=1;fillColor=#d5e8d4;strokeColor=#82b366;" vertex="1" parent="1">
          <mxGeometry x="40" y="180" width="80" height="40" as="geometry" />
        </mxCell>
        <mxCell id="d_pu53hUmGRTe69JMyzy-7" value="" style="endArrow=none;dashed=1;html=1;rounded=0;fontSize=18;fillColor=#dae8fc;strokeColor=#6c8ebf;strokeWidth=4;" edge="1" parent="1">
          <mxGeometry width="50" height="50" relative="1" as="geometry">
            <mxPoint x="160" y="360" as="sourcePoint" />
            <mxPoint x="160" as="targetPoint" />
          </mxGeometry>
        </mxCell>
        <mxCell id="d_pu53hUmGRTe69JMyzy-9" value="beat" style="shape=table;startSize=30;container=1;collapsible=1;childLayout=tableLayout;fixedRows=1;rowLines=0;fontStyle=1;align=center;resizeLast=1;sketch=1;fontSize=18;fillColor=#e1d5e7;strokeColor=#9673a6;" vertex="1" parent="1">
          <mxGeometry x="320" y="20" width="430.0000000000002" height="370" as="geometry" />
        </mxCell>
        <mxCell id="d_pu53hUmGRTe69JMyzy-10" value="" style="shape=tableRow;horizontal=0;startSize=0;swimlaneHead=0;swimlaneBody=0;fillColor=none;collapsible=0;dropTarget=0;points=[[0,0.5],[1,0.5]];portConstraint=eastwest;top=0;left=0;right=0;bottom=1;sketch=1;fontSize=18;" vertex="1" parent="d_pu53hUmGRTe69JMyzy-9">
          <mxGeometry y="30" width="430.0000000000002" height="30" as="geometry" />
        </mxCell>
        <mxCell id="d_pu53hUmGRTe69JMyzy-11" value="PK" style="shape=partialRectangle;connectable=0;fillColor=none;top=0;left=0;bottom=0;right=0;fontStyle=1;overflow=hidden;sketch=1;fontSize=18;" vertex="1" parent="d_pu53hUmGRTe69JMyzy-10">
          <mxGeometry width="30" height="30" as="geometry">
            <mxRectangle width="30" height="30" as="alternateBounds" />
          </mxGeometry>
        </mxCell>
        <mxCell id="d_pu53hUmGRTe69JMyzy-12" value="id" style="shape=partialRectangle;connectable=0;fillColor=none;top=0;left=0;bottom=0;right=0;align=left;spacingLeft=6;fontStyle=1;overflow=hidden;sketch=1;fontSize=18;" vertex="1" parent="d_pu53hUmGRTe69JMyzy-10">
          <mxGeometry x="30" width="150" height="30" as="geometry">
            <mxRectangle width="150" height="30" as="alternateBounds" />
          </mxGeometry>
        </mxCell>
        <mxCell id="d_pu53hUmGRTe69JMyzy-34" value="BIGSERIAL" style="shape=partialRectangle;connectable=0;fillColor=none;top=0;left=0;bottom=0;right=0;align=left;spacingLeft=6;fontStyle=1;overflow=hidden;sketch=1;fontSize=18;" vertex="1" parent="d_pu53hUmGRTe69JMyzy-10">
          <mxGeometry x="180" width="150" height="30" as="geometry">
            <mxRectangle width="150" height="30" as="alternateBounds" />
          </mxGeometry>
        </mxCell>
        <mxCell id="d_pu53hUmGRTe69JMyzy-59" style="shape=partialRectangle;connectable=0;fillColor=none;top=0;left=0;bottom=0;right=0;align=left;spacingLeft=6;fontStyle=1;overflow=hidden;sketch=1;fontSize=18;" vertex="1" parent="d_pu53hUmGRTe69JMyzy-10">
          <mxGeometry x="330" width="100.00000000000023" height="30" as="geometry">
            <mxRectangle width="100.00000000000023" height="30" as="alternateBounds" />
          </mxGeometry>
        </mxCell>
        <mxCell id="d_pu53hUmGRTe69JMyzy-42" style="shape=tableRow;horizontal=0;startSize=0;swimlaneHead=0;swimlaneBody=0;fillColor=none;collapsible=0;dropTarget=0;points=[[0,0.5],[1,0.5]];portConstraint=eastwest;top=0;left=0;right=0;bottom=0;sketch=1;fontSize=18;" vertex="1" parent="d_pu53hUmGRTe69JMyzy-9">
          <mxGeometry y="60" width="430.0000000000002" height="30" as="geometry" />
        </mxCell>
        <mxCell id="d_pu53hUmGRTe69JMyzy-43" style="shape=partialRectangle;connectable=0;fillColor=none;top=0;left=0;bottom=0;right=0;editable=1;overflow=hidden;sketch=1;fontSize=18;" vertex="1" parent="d_pu53hUmGRTe69JMyzy-42">
          <mxGeometry width="30" height="30" as="geometry">
            <mxRectangle width="30" height="30" as="alternateBounds" />
          </mxGeometry>
        </mxCell>
        <mxCell id="d_pu53hUmGRTe69JMyzy-44" value="name" style="shape=partialRectangle;connectable=0;fillColor=none;top=0;left=0;bottom=0;right=0;align=left;spacingLeft=6;overflow=hidden;sketch=1;fontSize=18;" vertex="1" parent="d_pu53hUmGRTe69JMyzy-42">
          <mxGeometry x="30" width="150" height="30" as="geometry">
            <mxRectangle width="150" height="30" as="alternateBounds" />
          </mxGeometry>
        </mxCell>
        <mxCell id="d_pu53hUmGRTe69JMyzy-45" value="TEXT" style="shape=partialRectangle;connectable=0;fillColor=none;top=0;left=0;bottom=0;right=0;align=left;spacingLeft=6;overflow=hidden;sketch=1;fontSize=18;" vertex="1" parent="d_pu53hUmGRTe69JMyzy-42">
          <mxGeometry x="180" width="150" height="30" as="geometry">
            <mxRectangle width="150" height="30" as="alternateBounds" />
          </mxGeometry>
        </mxCell>
        <mxCell id="d_pu53hUmGRTe69JMyzy-60" value="NOT NULL" style="shape=partialRectangle;connectable=0;fillColor=none;top=0;left=0;bottom=0;right=0;align=left;spacingLeft=6;overflow=hidden;sketch=1;fontSize=18;" vertex="1" parent="d_pu53hUmGRTe69JMyzy-42">
          <mxGeometry x="330" width="100.00000000000023" height="30" as="geometry">
            <mxRectangle width="100.00000000000023" height="30" as="alternateBounds" />
          </mxGeometry>
        </mxCell>
        <mxCell id="d_pu53hUmGRTe69JMyzy-13" value="" style="shape=tableRow;horizontal=0;startSize=0;swimlaneHead=0;swimlaneBody=0;fillColor=none;collapsible=0;dropTarget=0;points=[[0,0.5],[1,0.5]];portConstraint=eastwest;top=0;left=0;right=0;bottom=0;sketch=1;fontSize=18;" vertex="1" parent="d_pu53hUmGRTe69JMyzy-9">
          <mxGeometry y="90" width="430.0000000000002" height="30" as="geometry" />
        </mxCell>
        <mxCell id="d_pu53hUmGRTe69JMyzy-14" value="" style="shape=partialRectangle;connectable=0;fillColor=none;top=0;left=0;bottom=0;right=0;editable=1;overflow=hidden;sketch=1;fontSize=18;" vertex="1" parent="d_pu53hUmGRTe69JMyzy-13">
          <mxGeometry width="30" height="30" as="geometry">
            <mxRectangle width="30" height="30" as="alternateBounds" />
          </mxGeometry>
        </mxCell>
        <mxCell id="d_pu53hUmGRTe69JMyzy-15" value="bpm" style="shape=partialRectangle;connectable=0;fillColor=none;top=0;left=0;bottom=0;right=0;align=left;spacingLeft=6;overflow=hidden;sketch=1;fontSize=18;" vertex="1" parent="d_pu53hUmGRTe69JMyzy-13">
          <mxGeometry x="30" width="150" height="30" as="geometry">
            <mxRectangle width="150" height="30" as="alternateBounds" />
          </mxGeometry>
        </mxCell>
        <mxCell id="d_pu53hUmGRTe69JMyzy-35" value="TEXT" style="shape=partialRectangle;connectable=0;fillColor=none;top=0;left=0;bottom=0;right=0;align=left;spacingLeft=6;overflow=hidden;sketch=1;fontSize=18;" vertex="1" parent="d_pu53hUmGRTe69JMyzy-13">
          <mxGeometry x="180" width="150" height="30" as="geometry">
            <mxRectangle width="150" height="30" as="alternateBounds" />
          </mxGeometry>
        </mxCell>
        <mxCell id="d_pu53hUmGRTe69JMyzy-61" value="NOT NULL" style="shape=partialRectangle;connectable=0;fillColor=none;top=0;left=0;bottom=0;right=0;align=left;spacingLeft=6;overflow=hidden;sketch=1;fontSize=18;" vertex="1" parent="d_pu53hUmGRTe69JMyzy-13">
          <mxGeometry x="330" width="100.00000000000023" height="30" as="geometry">
            <mxRectangle width="100.00000000000023" height="30" as="alternateBounds" />
          </mxGeometry>
        </mxCell>
        <mxCell id="d_pu53hUmGRTe69JMyzy-16" value="" style="shape=tableRow;horizontal=0;startSize=0;swimlaneHead=0;swimlaneBody=0;fillColor=none;collapsible=0;dropTarget=0;points=[[0,0.5],[1,0.5]];portConstraint=eastwest;top=0;left=0;right=0;bottom=0;sketch=1;fontSize=18;" vertex="1" parent="d_pu53hUmGRTe69JMyzy-9">
          <mxGeometry y="120" width="430.0000000000002" height="30" as="geometry" />
        </mxCell>
        <mxCell id="d_pu53hUmGRTe69JMyzy-17" value="" style="shape=partialRectangle;connectable=0;fillColor=none;top=0;left=0;bottom=0;right=0;editable=1;overflow=hidden;sketch=1;fontSize=18;" vertex="1" parent="d_pu53hUmGRTe69JMyzy-16">
          <mxGeometry width="30" height="30" as="geometry">
            <mxRectangle width="30" height="30" as="alternateBounds" />
          </mxGeometry>
        </mxCell>
        <mxCell id="d_pu53hUmGRTe69JMyzy-18" value="key" style="shape=partialRectangle;connectable=0;fillColor=none;top=0;left=0;bottom=0;right=0;align=left;spacingLeft=6;overflow=hidden;sketch=1;fontSize=18;" vertex="1" parent="d_pu53hUmGRTe69JMyzy-16">
          <mxGeometry x="30" width="150" height="30" as="geometry">
            <mxRectangle width="150" height="30" as="alternateBounds" />
          </mxGeometry>
        </mxCell>
        <mxCell id="d_pu53hUmGRTe69JMyzy-36" value="TEXT" style="shape=partialRectangle;connectable=0;fillColor=none;top=0;left=0;bottom=0;right=0;align=left;spacingLeft=6;overflow=hidden;sketch=1;fontSize=18;" vertex="1" parent="d_pu53hUmGRTe69JMyzy-16">
          <mxGeometry x="180" width="150" height="30" as="geometry">
            <mxRectangle width="150" height="30" as="alternateBounds" />
          </mxGeometry>
        </mxCell>
        <mxCell id="d_pu53hUmGRTe69JMyzy-62" value="NOT NULL" style="shape=partialRectangle;connectable=0;fillColor=none;top=0;left=0;bottom=0;right=0;align=left;spacingLeft=6;overflow=hidden;sketch=1;fontSize=18;" vertex="1" parent="d_pu53hUmGRTe69JMyzy-16">
          <mxGeometry x="330" width="100.00000000000023" height="30" as="geometry">
            <mxRectangle width="100.00000000000023" height="30" as="alternateBounds" />
          </mxGeometry>
        </mxCell>
        <mxCell id="d_pu53hUmGRTe69JMyzy-25" style="shape=tableRow;horizontal=0;startSize=0;swimlaneHead=0;swimlaneBody=0;fillColor=none;collapsible=0;dropTarget=0;points=[[0,0.5],[1,0.5]];portConstraint=eastwest;top=0;left=0;right=0;bottom=0;sketch=1;fontSize=18;" vertex="1" parent="d_pu53hUmGRTe69JMyzy-9">
          <mxGeometry y="150" width="430.0000000000002" height="30" as="geometry" />
        </mxCell>
        <mxCell id="d_pu53hUmGRTe69JMyzy-26" style="shape=partialRectangle;connectable=0;fillColor=none;top=0;left=0;bottom=0;right=0;editable=1;overflow=hidden;sketch=1;fontSize=18;" vertex="1" parent="d_pu53hUmGRTe69JMyzy-25">
          <mxGeometry width="30" height="30" as="geometry">
            <mxRectangle width="30" height="30" as="alternateBounds" />
          </mxGeometry>
        </mxCell>
        <mxCell id="d_pu53hUmGRTe69JMyzy-27" value="photo_path" style="shape=partialRectangle;connectable=0;fillColor=none;top=0;left=0;bottom=0;right=0;align=left;spacingLeft=6;overflow=hidden;sketch=1;fontSize=18;" vertex="1" parent="d_pu53hUmGRTe69JMyzy-25">
          <mxGeometry x="30" width="150" height="30" as="geometry">
            <mxRectangle width="150" height="30" as="alternateBounds" />
          </mxGeometry>
        </mxCell>
        <mxCell id="d_pu53hUmGRTe69JMyzy-37" value="TEXT" style="shape=partialRectangle;connectable=0;fillColor=none;top=0;left=0;bottom=0;right=0;align=left;spacingLeft=6;overflow=hidden;sketch=1;fontSize=18;" vertex="1" parent="d_pu53hUmGRTe69JMyzy-25">
          <mxGeometry x="180" width="150" height="30" as="geometry">
            <mxRectangle width="150" height="30" as="alternateBounds" />
          </mxGeometry>
        </mxCell>
        <mxCell id="d_pu53hUmGRTe69JMyzy-63" value="NOT NULL" style="shape=partialRectangle;connectable=0;fillColor=none;top=0;left=0;bottom=0;right=0;align=left;spacingLeft=6;overflow=hidden;sketch=1;fontSize=18;" vertex="1" parent="d_pu53hUmGRTe69JMyzy-25">
          <mxGeometry x="330" width="100.00000000000023" height="30" as="geometry">
            <mxRectangle width="100.00000000000023" height="30" as="alternateBounds" />
          </mxGeometry>
        </mxCell>
        <mxCell id="d_pu53hUmGRTe69JMyzy-28" style="shape=tableRow;horizontal=0;startSize=0;swimlaneHead=0;swimlaneBody=0;fillColor=none;collapsible=0;dropTarget=0;points=[[0,0.5],[1,0.5]];portConstraint=eastwest;top=0;left=0;right=0;bottom=0;sketch=1;fontSize=18;" vertex="1" parent="d_pu53hUmGRTe69JMyzy-9">
          <mxGeometry y="180" width="430.0000000000002" height="30" as="geometry" />
        </mxCell>
        <mxCell id="d_pu53hUmGRTe69JMyzy-29" style="shape=partialRectangle;connectable=0;fillColor=none;top=0;left=0;bottom=0;right=0;editable=1;overflow=hidden;sketch=1;fontSize=18;" vertex="1" parent="d_pu53hUmGRTe69JMyzy-28">
          <mxGeometry width="30" height="30" as="geometry">
            <mxRectangle width="30" height="30" as="alternateBounds" />
          </mxGeometry>
        </mxCell>
        <mxCell id="d_pu53hUmGRTe69JMyzy-30" value="mp3_path" style="shape=partialRectangle;connectable=0;fillColor=none;top=0;left=0;bottom=0;right=0;align=left;spacingLeft=6;overflow=hidden;sketch=1;fontSize=18;" vertex="1" parent="d_pu53hUmGRTe69JMyzy-28">
          <mxGeometry x="30" width="150" height="30" as="geometry">
            <mxRectangle width="150" height="30" as="alternateBounds" />
          </mxGeometry>
        </mxCell>
        <mxCell id="d_pu53hUmGRTe69JMyzy-38" value="TEXT" style="shape=partialRectangle;connectable=0;fillColor=none;top=0;left=0;bottom=0;right=0;align=left;spacingLeft=6;overflow=hidden;sketch=1;fontSize=18;" vertex="1" parent="d_pu53hUmGRTe69JMyzy-28">
          <mxGeometry x="180" width="150" height="30" as="geometry">
            <mxRectangle width="150" height="30" as="alternateBounds" />
          </mxGeometry>
        </mxCell>
        <mxCell id="d_pu53hUmGRTe69JMyzy-64" value="NOT NULL" style="shape=partialRectangle;connectable=0;fillColor=none;top=0;left=0;bottom=0;right=0;align=left;spacingLeft=6;overflow=hidden;sketch=1;fontSize=18;" vertex="1" parent="d_pu53hUmGRTe69JMyzy-28">
          <mxGeometry x="330" width="100.00000000000023" height="30" as="geometry">
            <mxRectangle width="100.00000000000023" height="30" as="alternateBounds" />
          </mxGeometry>
        </mxCell>
        <mxCell id="d_pu53hUmGRTe69JMyzy-31" style="shape=tableRow;horizontal=0;startSize=0;swimlaneHead=0;swimlaneBody=0;fillColor=none;collapsible=0;dropTarget=0;points=[[0,0.5],[1,0.5]];portConstraint=eastwest;top=0;left=0;right=0;bottom=0;sketch=1;fontSize=18;" vertex="1" parent="d_pu53hUmGRTe69JMyzy-9">
          <mxGeometry y="210" width="430.0000000000002" height="30" as="geometry" />
        </mxCell>
        <mxCell id="d_pu53hUmGRTe69JMyzy-32" style="shape=partialRectangle;connectable=0;fillColor=none;top=0;left=0;bottom=0;right=0;editable=1;overflow=hidden;sketch=1;fontSize=18;" vertex="1" parent="d_pu53hUmGRTe69JMyzy-31">
          <mxGeometry width="30" height="30" as="geometry">
            <mxRectangle width="30" height="30" as="alternateBounds" />
          </mxGeometry>
        </mxCell>
        <mxCell id="d_pu53hUmGRTe69JMyzy-33" value="wav_path" style="shape=partialRectangle;connectable=0;fillColor=none;top=0;left=0;bottom=0;right=0;align=left;spacingLeft=6;overflow=hidden;sketch=1;fontSize=18;" vertex="1" parent="d_pu53hUmGRTe69JMyzy-31">
          <mxGeometry x="30" width="150" height="30" as="geometry">
            <mxRectangle width="150" height="30" as="alternateBounds" />
          </mxGeometry>
        </mxCell>
        <mxCell id="d_pu53hUmGRTe69JMyzy-39" value="TEXT" style="shape=partialRectangle;connectable=0;fillColor=none;top=0;left=0;bottom=0;right=0;align=left;spacingLeft=6;overflow=hidden;sketch=1;fontSize=18;" vertex="1" parent="d_pu53hUmGRTe69JMyzy-31">
          <mxGeometry x="180" width="150" height="30" as="geometry">
            <mxRectangle width="150" height="30" as="alternateBounds" />
          </mxGeometry>
        </mxCell>
        <mxCell id="d_pu53hUmGRTe69JMyzy-65" style="shape=partialRectangle;connectable=0;fillColor=none;top=0;left=0;bottom=0;right=0;align=left;spacingLeft=6;overflow=hidden;sketch=1;fontSize=18;" vertex="1" parent="d_pu53hUmGRTe69JMyzy-31">
          <mxGeometry x="330" width="100.00000000000023" height="30" as="geometry">
            <mxRectangle width="100.00000000000023" height="30" as="alternateBounds" />
          </mxGeometry>
        </mxCell>
        <mxCell id="d_pu53hUmGRTe69JMyzy-232" style="shape=tableRow;horizontal=0;startSize=0;swimlaneHead=0;swimlaneBody=0;fillColor=none;collapsible=0;dropTarget=0;points=[[0,0.5],[1,0.5]];portConstraint=eastwest;top=0;left=0;right=0;bottom=0;sketch=1;fontSize=18;" vertex="1" parent="d_pu53hUmGRTe69JMyzy-9">
          <mxGeometry y="240" width="430.0000000000002" height="30" as="geometry" />
        </mxCell>
        <mxCell id="d_pu53hUmGRTe69JMyzy-233" style="shape=partialRectangle;connectable=0;fillColor=none;top=0;left=0;bottom=0;right=0;editable=1;overflow=hidden;sketch=1;fontSize=18;" vertex="1" parent="d_pu53hUmGRTe69JMyzy-232">
          <mxGeometry width="30" height="30" as="geometry">
            <mxRectangle width="30" height="30" as="alternateBounds" />
          </mxGeometry>
        </mxCell>
        <mxCell id="d_pu53hUmGRTe69JMyzy-234" value="like" style="shape=partialRectangle;connectable=0;fillColor=none;top=0;left=0;bottom=0;right=0;align=left;spacingLeft=6;overflow=hidden;sketch=1;fontSize=18;" vertex="1" parent="d_pu53hUmGRTe69JMyzy-232">
          <mxGeometry x="30" width="150" height="30" as="geometry">
            <mxRectangle width="150" height="30" as="alternateBounds" />
          </mxGeometry>
        </mxCell>
        <mxCell id="d_pu53hUmGRTe69JMyzy-235" value="INT" style="shape=partialRectangle;connectable=0;fillColor=none;top=0;left=0;bottom=0;right=0;align=left;spacingLeft=6;overflow=hidden;sketch=1;fontSize=18;" vertex="1" parent="d_pu53hUmGRTe69JMyzy-232">
          <mxGeometry x="180" width="150" height="30" as="geometry">
            <mxRectangle width="150" height="30" as="alternateBounds" />
          </mxGeometry>
        </mxCell>
        <mxCell id="d_pu53hUmGRTe69JMyzy-236" style="shape=partialRectangle;connectable=0;fillColor=none;top=0;left=0;bottom=0;right=0;align=left;spacingLeft=6;overflow=hidden;sketch=1;fontSize=18;" vertex="1" parent="d_pu53hUmGRTe69JMyzy-232">
          <mxGeometry x="330" width="100.00000000000023" height="30" as="geometry">
            <mxRectangle width="100.00000000000023" height="30" as="alternateBounds" />
          </mxGeometry>
        </mxCell>
        <mxCell id="d_pu53hUmGRTe69JMyzy-19" value="" style="shape=tableRow;horizontal=0;startSize=0;swimlaneHead=0;swimlaneBody=0;fillColor=none;collapsible=0;dropTarget=0;points=[[0,0.5],[1,0.5]];portConstraint=eastwest;top=0;left=0;right=0;bottom=0;sketch=1;fontSize=18;" vertex="1" parent="d_pu53hUmGRTe69JMyzy-9">
          <mxGeometry y="270" width="430.0000000000002" height="30" as="geometry" />
        </mxCell>
        <mxCell id="d_pu53hUmGRTe69JMyzy-20" value="" style="shape=partialRectangle;connectable=0;fillColor=none;top=0;left=0;bottom=0;right=0;editable=1;overflow=hidden;sketch=1;fontSize=18;" vertex="1" parent="d_pu53hUmGRTe69JMyzy-19">
          <mxGeometry width="30" height="30" as="geometry">
            <mxRectangle width="30" height="30" as="alternateBounds" />
          </mxGeometry>
        </mxCell>
        <mxCell id="d_pu53hUmGRTe69JMyzy-21" value="genre" style="shape=partialRectangle;connectable=0;fillColor=none;top=0;left=0;bottom=0;right=0;align=left;spacingLeft=6;overflow=hidden;sketch=1;fontSize=18;" vertex="1" parent="d_pu53hUmGRTe69JMyzy-19">
          <mxGeometry x="30" width="150" height="30" as="geometry">
            <mxRectangle width="150" height="30" as="alternateBounds" />
          </mxGeometry>
        </mxCell>
        <mxCell id="d_pu53hUmGRTe69JMyzy-40" value="TEXT" style="shape=partialRectangle;connectable=0;fillColor=none;top=0;left=0;bottom=0;right=0;align=left;spacingLeft=6;overflow=hidden;sketch=1;fontSize=18;" vertex="1" parent="d_pu53hUmGRTe69JMyzy-19">
          <mxGeometry x="180" width="150" height="30" as="geometry">
            <mxRectangle width="150" height="30" as="alternateBounds" />
          </mxGeometry>
        </mxCell>
        <mxCell id="d_pu53hUmGRTe69JMyzy-66" style="shape=partialRectangle;connectable=0;fillColor=none;top=0;left=0;bottom=0;right=0;align=left;spacingLeft=6;overflow=hidden;sketch=1;fontSize=18;" vertex="1" parent="d_pu53hUmGRTe69JMyzy-19">
          <mxGeometry x="330" width="100.00000000000023" height="30" as="geometry">
            <mxRectangle width="100.00000000000023" height="30" as="alternateBounds" />
          </mxGeometry>
        </mxCell>
        <mxCell id="d_pu53hUmGRTe69JMyzy-22" style="shape=tableRow;horizontal=0;startSize=0;swimlaneHead=0;swimlaneBody=0;fillColor=none;collapsible=0;dropTarget=0;points=[[0,0.5],[1,0.5]];portConstraint=eastwest;top=0;left=0;right=0;bottom=0;sketch=1;fontSize=18;" vertex="1" parent="d_pu53hUmGRTe69JMyzy-9">
          <mxGeometry y="300" width="430.0000000000002" height="30" as="geometry" />
        </mxCell>
        <mxCell id="d_pu53hUmGRTe69JMyzy-23" style="shape=partialRectangle;connectable=0;fillColor=none;top=0;left=0;bottom=0;right=0;editable=1;overflow=hidden;sketch=1;fontSize=18;" vertex="1" parent="d_pu53hUmGRTe69JMyzy-22">
          <mxGeometry width="30" height="30" as="geometry">
            <mxRectangle width="30" height="30" as="alternateBounds" />
          </mxGeometry>
        </mxCell>
        <mxCell id="d_pu53hUmGRTe69JMyzy-24" value="mood" style="shape=partialRectangle;connectable=0;fillColor=none;top=0;left=0;bottom=0;right=0;align=left;spacingLeft=6;overflow=hidden;sketch=1;fontSize=18;" vertex="1" parent="d_pu53hUmGRTe69JMyzy-22">
          <mxGeometry x="30" width="150" height="30" as="geometry">
            <mxRectangle width="150" height="30" as="alternateBounds" />
          </mxGeometry>
        </mxCell>
        <mxCell id="d_pu53hUmGRTe69JMyzy-41" value="TEXT" style="shape=partialRectangle;connectable=0;fillColor=none;top=0;left=0;bottom=0;right=0;align=left;spacingLeft=6;overflow=hidden;sketch=1;fontSize=18;" vertex="1" parent="d_pu53hUmGRTe69JMyzy-22">
          <mxGeometry x="180" width="150" height="30" as="geometry">
            <mxRectangle width="150" height="30" as="alternateBounds" />
          </mxGeometry>
        </mxCell>
        <mxCell id="d_pu53hUmGRTe69JMyzy-67" style="shape=partialRectangle;connectable=0;fillColor=none;top=0;left=0;bottom=0;right=0;align=left;spacingLeft=6;overflow=hidden;sketch=1;fontSize=18;" vertex="1" parent="d_pu53hUmGRTe69JMyzy-22">
          <mxGeometry x="330" width="100.00000000000023" height="30" as="geometry">
            <mxRectangle width="100.00000000000023" height="30" as="alternateBounds" />
          </mxGeometry>
        </mxCell>
        <mxCell id="d_pu53hUmGRTe69JMyzy-71" style="shape=tableRow;horizontal=0;startSize=0;swimlaneHead=0;swimlaneBody=0;fillColor=none;collapsible=0;dropTarget=0;points=[[0,0.5],[1,0.5]];portConstraint=eastwest;top=0;left=0;right=0;bottom=0;sketch=1;fontSize=18;" vertex="1" parent="d_pu53hUmGRTe69JMyzy-9">
          <mxGeometry y="330" width="430.0000000000002" height="30" as="geometry" />
        </mxCell>
        <mxCell id="d_pu53hUmGRTe69JMyzy-72" style="shape=partialRectangle;connectable=0;fillColor=none;top=0;left=0;bottom=0;right=0;editable=1;overflow=hidden;sketch=1;fontSize=18;" vertex="1" parent="d_pu53hUmGRTe69JMyzy-71">
          <mxGeometry width="30" height="30" as="geometry">
            <mxRectangle width="30" height="30" as="alternateBounds" />
          </mxGeometry>
        </mxCell>
        <mxCell id="d_pu53hUmGRTe69JMyzy-73" value="created_at" style="shape=partialRectangle;connectable=0;fillColor=none;top=0;left=0;bottom=0;right=0;align=left;spacingLeft=6;overflow=hidden;sketch=1;fontSize=18;" vertex="1" parent="d_pu53hUmGRTe69JMyzy-71">
          <mxGeometry x="30" width="150" height="30" as="geometry">
            <mxRectangle width="150" height="30" as="alternateBounds" />
          </mxGeometry>
        </mxCell>
        <mxCell id="d_pu53hUmGRTe69JMyzy-74" value="TIMESTAMP" style="shape=partialRectangle;connectable=0;fillColor=none;top=0;left=0;bottom=0;right=0;align=left;spacingLeft=6;overflow=hidden;sketch=1;fontSize=18;" vertex="1" parent="d_pu53hUmGRTe69JMyzy-71">
          <mxGeometry x="180" width="150" height="30" as="geometry">
            <mxRectangle width="150" height="30" as="alternateBounds" />
          </mxGeometry>
        </mxCell>
        <mxCell id="d_pu53hUmGRTe69JMyzy-75" value="NOT NULL" style="shape=partialRectangle;connectable=0;fillColor=none;top=0;left=0;bottom=0;right=0;align=left;spacingLeft=6;overflow=hidden;sketch=1;fontSize=18;" vertex="1" parent="d_pu53hUmGRTe69JMyzy-71">
          <mxGeometry x="330" width="100.00000000000023" height="30" as="geometry">
            <mxRectangle width="100.00000000000023" height="30" as="alternateBounds" />
          </mxGeometry>
        </mxCell>
        <mxCell id="d_pu53hUmGRTe69JMyzy-69" style="edgeStyle=orthogonalEdgeStyle;rounded=0;orthogonalLoop=1;jettySize=auto;html=1;fontSize=18;strokeWidth=3;entryX=-0.001;entryY=0.656;entryDx=0;entryDy=0;endArrow=none;endFill=0;fillColor=#f8cecc;strokeColor=#b85450;entryPerimeter=0;exitX=0;exitY=0;exitDx=90;exitDy=20;exitPerimeter=0;" edge="1" parent="1" source="d_pu53hUmGRTe69JMyzy-68" target="d_pu53hUmGRTe69JMyzy-19">
          <mxGeometry relative="1" as="geometry">
            <Array as="points">
              <mxPoint x="290" y="310" />
            </Array>
          </mxGeometry>
        </mxCell>
        <mxCell id="d_pu53hUmGRTe69JMyzy-68" value="default: &quot;All&quot;" style="shape=note;size=20;whiteSpace=wrap;html=1;sketch=1;fontSize=18;fillColor=#f8cecc;strokeColor=#b85450;" vertex="1" parent="1">
          <mxGeometry x="170" y="290" width="90" height="100" as="geometry" />
        </mxCell>
        <mxCell id="d_pu53hUmGRTe69JMyzy-70" style="edgeStyle=orthogonalEdgeStyle;rounded=0;orthogonalLoop=1;jettySize=auto;html=1;fontSize=18;strokeWidth=3;endArrow=none;endFill=0;fillColor=#f8cecc;strokeColor=#b85450;" edge="1" parent="1">
          <mxGeometry relative="1" as="geometry">
            <mxPoint x="260" y="330" as="sourcePoint" />
            <mxPoint x="320" y="330" as="targetPoint" />
            <Array as="points">
              <mxPoint x="261" y="330" />
            </Array>
          </mxGeometry>
        </mxCell>
        <mxCell id="d_pu53hUmGRTe69JMyzy-76" value="tag" style="shape=table;startSize=30;container=1;collapsible=1;childLayout=tableLayout;fixedRows=1;rowLines=0;fontStyle=1;align=center;resizeLast=1;sketch=1;fontSize=18;fillColor=#e1d5e7;strokeColor=#9673a6;" vertex="1" parent="1">
          <mxGeometry x="870" y="20" width="360" height="130" as="geometry" />
        </mxCell>
        <mxCell id="d_pu53hUmGRTe69JMyzy-77" value="" style="shape=tableRow;horizontal=0;startSize=0;swimlaneHead=0;swimlaneBody=0;fillColor=none;collapsible=0;dropTarget=0;points=[[0,0.5],[1,0.5]];portConstraint=eastwest;top=0;left=0;right=0;bottom=1;sketch=1;fontSize=18;" vertex="1" parent="d_pu53hUmGRTe69JMyzy-76">
          <mxGeometry y="30" width="360" height="30" as="geometry" />
        </mxCell>
        <mxCell id="d_pu53hUmGRTe69JMyzy-78" value="PK" style="shape=partialRectangle;connectable=0;fillColor=none;top=0;left=0;bottom=0;right=0;fontStyle=1;overflow=hidden;sketch=1;fontSize=18;" vertex="1" parent="d_pu53hUmGRTe69JMyzy-77">
          <mxGeometry width="30" height="30" as="geometry">
            <mxRectangle width="30" height="30" as="alternateBounds" />
          </mxGeometry>
        </mxCell>
        <mxCell id="d_pu53hUmGRTe69JMyzy-79" value="id" style="shape=partialRectangle;connectable=0;fillColor=none;top=0;left=0;bottom=0;right=0;align=left;spacingLeft=6;fontStyle=1;overflow=hidden;sketch=1;fontSize=18;" vertex="1" parent="d_pu53hUmGRTe69JMyzy-77">
          <mxGeometry x="30" width="90" height="30" as="geometry">
            <mxRectangle width="90" height="30" as="alternateBounds" />
          </mxGeometry>
        </mxCell>
        <mxCell id="d_pu53hUmGRTe69JMyzy-80" value="BIGSERIAL" style="shape=partialRectangle;connectable=0;fillColor=none;top=0;left=0;bottom=0;right=0;align=left;spacingLeft=6;fontStyle=1;overflow=hidden;sketch=1;fontSize=18;" vertex="1" parent="d_pu53hUmGRTe69JMyzy-77">
          <mxGeometry x="120" width="130" height="30" as="geometry">
            <mxRectangle width="130" height="30" as="alternateBounds" />
          </mxGeometry>
        </mxCell>
        <mxCell id="d_pu53hUmGRTe69JMyzy-81" style="shape=partialRectangle;connectable=0;fillColor=none;top=0;left=0;bottom=0;right=0;align=left;spacingLeft=6;fontStyle=1;overflow=hidden;sketch=1;fontSize=18;" vertex="1" parent="d_pu53hUmGRTe69JMyzy-77">
          <mxGeometry x="250" width="110" height="30" as="geometry">
            <mxRectangle width="110" height="30" as="alternateBounds" />
          </mxGeometry>
        </mxCell>
        <mxCell id="d_pu53hUmGRTe69JMyzy-82" style="shape=tableRow;horizontal=0;startSize=0;swimlaneHead=0;swimlaneBody=0;fillColor=none;collapsible=0;dropTarget=0;points=[[0,0.5],[1,0.5]];portConstraint=eastwest;top=0;left=0;right=0;bottom=0;sketch=1;fontSize=18;" vertex="1" parent="d_pu53hUmGRTe69JMyzy-76">
          <mxGeometry y="60" width="360" height="30" as="geometry" />
        </mxCell>
        <mxCell id="d_pu53hUmGRTe69JMyzy-83" value="FG" style="shape=partialRectangle;connectable=0;fillColor=none;top=0;left=0;bottom=0;right=0;editable=1;overflow=hidden;sketch=1;fontSize=18;" vertex="1" parent="d_pu53hUmGRTe69JMyzy-82">
          <mxGeometry width="30" height="30" as="geometry">
            <mxRectangle width="30" height="30" as="alternateBounds" />
          </mxGeometry>
        </mxCell>
        <mxCell id="d_pu53hUmGRTe69JMyzy-84" value="beat_id" style="shape=partialRectangle;connectable=0;fillColor=none;top=0;left=0;bottom=0;right=0;align=left;spacingLeft=6;overflow=hidden;sketch=1;fontSize=18;" vertex="1" parent="d_pu53hUmGRTe69JMyzy-82">
          <mxGeometry x="30" width="90" height="30" as="geometry">
            <mxRectangle width="90" height="30" as="alternateBounds" />
          </mxGeometry>
        </mxCell>
        <mxCell id="d_pu53hUmGRTe69JMyzy-85" value="BIGINT" style="shape=partialRectangle;connectable=0;fillColor=none;top=0;left=0;bottom=0;right=0;align=left;spacingLeft=6;overflow=hidden;sketch=1;fontSize=18;" vertex="1" parent="d_pu53hUmGRTe69JMyzy-82">
          <mxGeometry x="120" width="130" height="30" as="geometry">
            <mxRectangle width="130" height="30" as="alternateBounds" />
          </mxGeometry>
        </mxCell>
        <mxCell id="d_pu53hUmGRTe69JMyzy-86" value="NOT NULL" style="shape=partialRectangle;connectable=0;fillColor=none;top=0;left=0;bottom=0;right=0;align=left;spacingLeft=6;overflow=hidden;sketch=1;fontSize=18;" vertex="1" parent="d_pu53hUmGRTe69JMyzy-82">
          <mxGeometry x="250" width="110" height="30" as="geometry">
            <mxRectangle width="110" height="30" as="alternateBounds" />
          </mxGeometry>
        </mxCell>
        <mxCell id="d_pu53hUmGRTe69JMyzy-87" value="" style="shape=tableRow;horizontal=0;startSize=0;swimlaneHead=0;swimlaneBody=0;fillColor=none;collapsible=0;dropTarget=0;points=[[0,0.5],[1,0.5]];portConstraint=eastwest;top=0;left=0;right=0;bottom=0;sketch=1;fontSize=18;" vertex="1" parent="d_pu53hUmGRTe69JMyzy-76">
          <mxGeometry y="90" width="360" height="30" as="geometry" />
        </mxCell>
        <mxCell id="d_pu53hUmGRTe69JMyzy-88" value="" style="shape=partialRectangle;connectable=0;fillColor=none;top=0;left=0;bottom=0;right=0;editable=1;overflow=hidden;sketch=1;fontSize=18;" vertex="1" parent="d_pu53hUmGRTe69JMyzy-87">
          <mxGeometry width="30" height="30" as="geometry">
            <mxRectangle width="30" height="30" as="alternateBounds" />
          </mxGeometry>
        </mxCell>
        <mxCell id="d_pu53hUmGRTe69JMyzy-89" value="name" style="shape=partialRectangle;connectable=0;fillColor=none;top=0;left=0;bottom=0;right=0;align=left;spacingLeft=6;overflow=hidden;sketch=1;fontSize=18;" vertex="1" parent="d_pu53hUmGRTe69JMyzy-87">
          <mxGeometry x="30" width="90" height="30" as="geometry">
            <mxRectangle width="90" height="30" as="alternateBounds" />
          </mxGeometry>
        </mxCell>
        <mxCell id="d_pu53hUmGRTe69JMyzy-90" value="TEXT" style="shape=partialRectangle;connectable=0;fillColor=none;top=0;left=0;bottom=0;right=0;align=left;spacingLeft=6;overflow=hidden;sketch=1;fontSize=18;" vertex="1" parent="d_pu53hUmGRTe69JMyzy-87">
          <mxGeometry x="120" width="130" height="30" as="geometry">
            <mxRectangle width="130" height="30" as="alternateBounds" />
          </mxGeometry>
        </mxCell>
        <mxCell id="d_pu53hUmGRTe69JMyzy-91" value="NOT NULL" style="shape=partialRectangle;connectable=0;fillColor=none;top=0;left=0;bottom=0;right=0;align=left;spacingLeft=6;overflow=hidden;sketch=1;fontSize=18;" vertex="1" parent="d_pu53hUmGRTe69JMyzy-87">
          <mxGeometry x="250" width="110" height="30" as="geometry">
            <mxRectangle width="110" height="30" as="alternateBounds" />
          </mxGeometry>
        </mxCell>
        <mxCell id="d_pu53hUmGRTe69JMyzy-133" style="edgeStyle=orthogonalEdgeStyle;rounded=0;orthogonalLoop=1;jettySize=auto;html=1;exitX=0;exitY=0.5;exitDx=0;exitDy=0;entryX=1;entryY=0.091;entryDx=0;entryDy=0;entryPerimeter=0;fontSize=18;endArrow=ERmandOne;endFill=0;strokeWidth=3;fillColor=#f8cecc;strokeColor=#b85450;startArrow=ERoneToMany;startFill=0;" edge="1" parent="1" source="d_pu53hUmGRTe69JMyzy-82" target="d_pu53hUmGRTe69JMyzy-10">
          <mxGeometry relative="1" as="geometry">
            <Array as="points">
              <mxPoint x="840" y="95" />
              <mxPoint x="840" y="53" />
            </Array>
          </mxGeometry>
        </mxCell>
        <mxCell id="d_pu53hUmGRTe69JMyzy-134" value="price" style="shape=table;startSize=30;container=1;collapsible=1;childLayout=tableLayout;fixedRows=1;rowLines=0;fontStyle=1;align=center;resizeLast=1;sketch=1;fontSize=18;fillColor=#e1d5e7;strokeColor=#9673a6;" vertex="1" parent="1">
          <mxGeometry x="870" y="170" width="420" height="190" as="geometry" />
        </mxCell>
        <mxCell id="d_pu53hUmGRTe69JMyzy-135" value="" style="shape=tableRow;horizontal=0;startSize=0;swimlaneHead=0;swimlaneBody=0;fillColor=none;collapsible=0;dropTarget=0;points=[[0,0.5],[1,0.5]];portConstraint=eastwest;top=0;left=0;right=0;bottom=1;sketch=1;fontSize=18;" vertex="1" parent="d_pu53hUmGRTe69JMyzy-134">
          <mxGeometry y="30" width="420" height="30" as="geometry" />
        </mxCell>
        <mxCell id="d_pu53hUmGRTe69JMyzy-136" value="PK" style="shape=partialRectangle;connectable=0;fillColor=none;top=0;left=0;bottom=0;right=0;fontStyle=1;overflow=hidden;sketch=1;fontSize=18;" vertex="1" parent="d_pu53hUmGRTe69JMyzy-135">
          <mxGeometry width="30" height="30" as="geometry">
            <mxRectangle width="30" height="30" as="alternateBounds" />
          </mxGeometry>
        </mxCell>
        <mxCell id="d_pu53hUmGRTe69JMyzy-137" value="id" style="shape=partialRectangle;connectable=0;fillColor=none;top=0;left=0;bottom=0;right=0;align=left;spacingLeft=6;fontStyle=1;overflow=hidden;sketch=1;fontSize=18;" vertex="1" parent="d_pu53hUmGRTe69JMyzy-135">
          <mxGeometry x="30" width="160" height="30" as="geometry">
            <mxRectangle width="160" height="30" as="alternateBounds" />
          </mxGeometry>
        </mxCell>
        <mxCell id="d_pu53hUmGRTe69JMyzy-138" value="BIGSERIAL" style="shape=partialRectangle;connectable=0;fillColor=none;top=0;left=0;bottom=0;right=0;align=left;spacingLeft=6;fontStyle=1;overflow=hidden;sketch=1;fontSize=18;" vertex="1" parent="d_pu53hUmGRTe69JMyzy-135">
          <mxGeometry x="190" width="120" height="30" as="geometry">
            <mxRectangle width="120" height="30" as="alternateBounds" />
          </mxGeometry>
        </mxCell>
        <mxCell id="d_pu53hUmGRTe69JMyzy-139" style="shape=partialRectangle;connectable=0;fillColor=none;top=0;left=0;bottom=0;right=0;align=left;spacingLeft=6;fontStyle=1;overflow=hidden;sketch=1;fontSize=18;" vertex="1" parent="d_pu53hUmGRTe69JMyzy-135">
          <mxGeometry x="310" width="110" height="30" as="geometry">
            <mxRectangle width="110" height="30" as="alternateBounds" />
          </mxGeometry>
        </mxCell>
        <mxCell id="d_pu53hUmGRTe69JMyzy-140" style="shape=tableRow;horizontal=0;startSize=0;swimlaneHead=0;swimlaneBody=0;fillColor=none;collapsible=0;dropTarget=0;points=[[0,0.5],[1,0.5]];portConstraint=eastwest;top=0;left=0;right=0;bottom=0;sketch=1;fontSize=18;" vertex="1" parent="d_pu53hUmGRTe69JMyzy-134">
          <mxGeometry y="60" width="420" height="30" as="geometry" />
        </mxCell>
        <mxCell id="d_pu53hUmGRTe69JMyzy-141" value="FG" style="shape=partialRectangle;connectable=0;fillColor=none;top=0;left=0;bottom=0;right=0;editable=1;overflow=hidden;sketch=1;fontSize=18;" vertex="1" parent="d_pu53hUmGRTe69JMyzy-140">
          <mxGeometry width="30" height="30" as="geometry">
            <mxRectangle width="30" height="30" as="alternateBounds" />
          </mxGeometry>
        </mxCell>
        <mxCell id="d_pu53hUmGRTe69JMyzy-142" value="beat_id" style="shape=partialRectangle;connectable=0;fillColor=none;top=0;left=0;bottom=0;right=0;align=left;spacingLeft=6;overflow=hidden;sketch=1;fontSize=18;" vertex="1" parent="d_pu53hUmGRTe69JMyzy-140">
          <mxGeometry x="30" width="160" height="30" as="geometry">
            <mxRectangle width="160" height="30" as="alternateBounds" />
          </mxGeometry>
        </mxCell>
        <mxCell id="d_pu53hUmGRTe69JMyzy-143" value="BIGINT" style="shape=partialRectangle;connectable=0;fillColor=none;top=0;left=0;bottom=0;right=0;align=left;spacingLeft=6;overflow=hidden;sketch=1;fontSize=18;" vertex="1" parent="d_pu53hUmGRTe69JMyzy-140">
          <mxGeometry x="190" width="120" height="30" as="geometry">
            <mxRectangle width="120" height="30" as="alternateBounds" />
          </mxGeometry>
        </mxCell>
        <mxCell id="d_pu53hUmGRTe69JMyzy-144" value="NOT NULL" style="shape=partialRectangle;connectable=0;fillColor=none;top=0;left=0;bottom=0;right=0;align=left;spacingLeft=6;overflow=hidden;sketch=1;fontSize=18;" vertex="1" parent="d_pu53hUmGRTe69JMyzy-140">
          <mxGeometry x="310" width="110" height="30" as="geometry">
            <mxRectangle width="110" height="30" as="alternateBounds" />
          </mxGeometry>
        </mxCell>
        <mxCell id="d_pu53hUmGRTe69JMyzy-145" value="" style="shape=tableRow;horizontal=0;startSize=0;swimlaneHead=0;swimlaneBody=0;fillColor=none;collapsible=0;dropTarget=0;points=[[0,0.5],[1,0.5]];portConstraint=eastwest;top=0;left=0;right=0;bottom=0;sketch=1;fontSize=18;" vertex="1" parent="d_pu53hUmGRTe69JMyzy-134">
          <mxGeometry y="90" width="420" height="30" as="geometry" />
        </mxCell>
        <mxCell id="d_pu53hUmGRTe69JMyzy-146" value="" style="shape=partialRectangle;connectable=0;fillColor=none;top=0;left=0;bottom=0;right=0;editable=1;overflow=hidden;sketch=1;fontSize=18;" vertex="1" parent="d_pu53hUmGRTe69JMyzy-145">
          <mxGeometry width="30" height="30" as="geometry">
            <mxRectangle width="30" height="30" as="alternateBounds" />
          </mxGeometry>
        </mxCell>
        <mxCell id="d_pu53hUmGRTe69JMyzy-147" value="standtart_price" style="shape=partialRectangle;connectable=0;fillColor=none;top=0;left=0;bottom=0;right=0;align=left;spacingLeft=6;overflow=hidden;sketch=1;fontSize=18;" vertex="1" parent="d_pu53hUmGRTe69JMyzy-145">
          <mxGeometry x="30" width="160" height="30" as="geometry">
            <mxRectangle width="160" height="30" as="alternateBounds" />
          </mxGeometry>
        </mxCell>
        <mxCell id="d_pu53hUmGRTe69JMyzy-148" value="TEXT" style="shape=partialRectangle;connectable=0;fillColor=none;top=0;left=0;bottom=0;right=0;align=left;spacingLeft=6;overflow=hidden;sketch=1;fontSize=18;" vertex="1" parent="d_pu53hUmGRTe69JMyzy-145">
          <mxGeometry x="190" width="120" height="30" as="geometry">
            <mxRectangle width="120" height="30" as="alternateBounds" />
          </mxGeometry>
        </mxCell>
        <mxCell id="d_pu53hUmGRTe69JMyzy-149" value="NOT NULL" style="shape=partialRectangle;connectable=0;fillColor=none;top=0;left=0;bottom=0;right=0;align=left;spacingLeft=6;overflow=hidden;sketch=1;fontSize=18;" vertex="1" parent="d_pu53hUmGRTe69JMyzy-145">
          <mxGeometry x="310" width="110" height="30" as="geometry">
            <mxRectangle width="110" height="30" as="alternateBounds" />
          </mxGeometry>
        </mxCell>
        <mxCell id="d_pu53hUmGRTe69JMyzy-151" style="shape=tableRow;horizontal=0;startSize=0;swimlaneHead=0;swimlaneBody=0;fillColor=none;collapsible=0;dropTarget=0;points=[[0,0.5],[1,0.5]];portConstraint=eastwest;top=0;left=0;right=0;bottom=0;sketch=1;fontSize=18;" vertex="1" parent="d_pu53hUmGRTe69JMyzy-134">
          <mxGeometry y="120" width="420" height="30" as="geometry" />
        </mxCell>
        <mxCell id="d_pu53hUmGRTe69JMyzy-152" style="shape=partialRectangle;connectable=0;fillColor=none;top=0;left=0;bottom=0;right=0;editable=1;overflow=hidden;sketch=1;fontSize=18;" vertex="1" parent="d_pu53hUmGRTe69JMyzy-151">
          <mxGeometry width="30" height="30" as="geometry">
            <mxRectangle width="30" height="30" as="alternateBounds" />
          </mxGeometry>
        </mxCell>
        <mxCell id="d_pu53hUmGRTe69JMyzy-153" value="premium_price" style="shape=partialRectangle;connectable=0;fillColor=none;top=0;left=0;bottom=0;right=0;align=left;spacingLeft=6;overflow=hidden;sketch=1;fontSize=18;" vertex="1" parent="d_pu53hUmGRTe69JMyzy-151">
          <mxGeometry x="30" width="160" height="30" as="geometry">
            <mxRectangle width="160" height="30" as="alternateBounds" />
          </mxGeometry>
        </mxCell>
        <mxCell id="d_pu53hUmGRTe69JMyzy-154" value="TEXT" style="shape=partialRectangle;connectable=0;fillColor=none;top=0;left=0;bottom=0;right=0;align=left;spacingLeft=6;overflow=hidden;sketch=1;fontSize=18;" vertex="1" parent="d_pu53hUmGRTe69JMyzy-151">
          <mxGeometry x="190" width="120" height="30" as="geometry">
            <mxRectangle width="120" height="30" as="alternateBounds" />
          </mxGeometry>
        </mxCell>
        <mxCell id="d_pu53hUmGRTe69JMyzy-155" style="shape=partialRectangle;connectable=0;fillColor=none;top=0;left=0;bottom=0;right=0;align=left;spacingLeft=6;overflow=hidden;sketch=1;fontSize=18;" vertex="1" parent="d_pu53hUmGRTe69JMyzy-151">
          <mxGeometry x="310" width="110" height="30" as="geometry">
            <mxRectangle width="110" height="30" as="alternateBounds" />
          </mxGeometry>
        </mxCell>
        <mxCell id="d_pu53hUmGRTe69JMyzy-156" style="shape=tableRow;horizontal=0;startSize=0;swimlaneHead=0;swimlaneBody=0;fillColor=none;collapsible=0;dropTarget=0;points=[[0,0.5],[1,0.5]];portConstraint=eastwest;top=0;left=0;right=0;bottom=0;sketch=1;fontSize=18;" vertex="1" parent="d_pu53hUmGRTe69JMyzy-134">
          <mxGeometry y="150" width="420" height="30" as="geometry" />
        </mxCell>
        <mxCell id="d_pu53hUmGRTe69JMyzy-157" style="shape=partialRectangle;connectable=0;fillColor=none;top=0;left=0;bottom=0;right=0;editable=1;overflow=hidden;sketch=1;fontSize=18;" vertex="1" parent="d_pu53hUmGRTe69JMyzy-156">
          <mxGeometry width="30" height="30" as="geometry">
            <mxRectangle width="30" height="30" as="alternateBounds" />
          </mxGeometry>
        </mxCell>
        <mxCell id="d_pu53hUmGRTe69JMyzy-158" value="unlimited_price" style="shape=partialRectangle;connectable=0;fillColor=none;top=0;left=0;bottom=0;right=0;align=left;spacingLeft=6;overflow=hidden;sketch=1;fontSize=18;" vertex="1" parent="d_pu53hUmGRTe69JMyzy-156">
          <mxGeometry x="30" width="160" height="30" as="geometry">
            <mxRectangle width="160" height="30" as="alternateBounds" />
          </mxGeometry>
        </mxCell>
        <mxCell id="d_pu53hUmGRTe69JMyzy-159" style="shape=partialRectangle;connectable=0;fillColor=none;top=0;left=0;bottom=0;right=0;align=left;spacingLeft=6;overflow=hidden;sketch=1;fontSize=18;" vertex="1" parent="d_pu53hUmGRTe69JMyzy-156">
          <mxGeometry x="190" width="120" height="30" as="geometry">
            <mxRectangle width="120" height="30" as="alternateBounds" />
          </mxGeometry>
        </mxCell>
        <mxCell id="d_pu53hUmGRTe69JMyzy-160" style="shape=partialRectangle;connectable=0;fillColor=none;top=0;left=0;bottom=0;right=0;align=left;spacingLeft=6;overflow=hidden;sketch=1;fontSize=18;" vertex="1" parent="d_pu53hUmGRTe69JMyzy-156">
          <mxGeometry x="310" width="110" height="30" as="geometry">
            <mxRectangle width="110" height="30" as="alternateBounds" />
          </mxGeometry>
        </mxCell>
        <mxCell id="d_pu53hUmGRTe69JMyzy-150" style="edgeStyle=orthogonalEdgeStyle;rounded=0;orthogonalLoop=1;jettySize=auto;html=1;entryX=1;entryY=0.761;entryDx=0;entryDy=0;entryPerimeter=0;fontSize=18;startArrow=ERmandOne;startFill=0;endArrow=ERmandOne;endFill=0;strokeWidth=3;fillColor=#f8cecc;strokeColor=#b85450;" edge="1" parent="1" source="d_pu53hUmGRTe69JMyzy-140" target="d_pu53hUmGRTe69JMyzy-10">
          <mxGeometry relative="1" as="geometry" />
        </mxCell>
        <mxCell id="d_pu53hUmGRTe69JMyzy-174" value="user" style="shape=table;startSize=30;container=1;collapsible=1;childLayout=tableLayout;fixedRows=1;rowLines=0;fontStyle=1;align=center;resizeLast=1;sketch=1;fontSize=18;fillColor=#e1d5e7;strokeColor=#9673a6;" vertex="1" parent="1">
          <mxGeometry x="320" y="-460" width="530" height="250" as="geometry" />
        </mxCell>
        <mxCell id="d_pu53hUmGRTe69JMyzy-175" value="" style="shape=tableRow;horizontal=0;startSize=0;swimlaneHead=0;swimlaneBody=0;fillColor=none;collapsible=0;dropTarget=0;points=[[0,0.5],[1,0.5]];portConstraint=eastwest;top=0;left=0;right=0;bottom=1;sketch=1;fontSize=18;" vertex="1" parent="d_pu53hUmGRTe69JMyzy-174">
          <mxGeometry y="30" width="530" height="30" as="geometry" />
        </mxCell>
        <mxCell id="d_pu53hUmGRTe69JMyzy-176" value="PK" style="shape=partialRectangle;connectable=0;fillColor=none;top=0;left=0;bottom=0;right=0;fontStyle=1;overflow=hidden;sketch=1;fontSize=18;" vertex="1" parent="d_pu53hUmGRTe69JMyzy-175">
          <mxGeometry width="30" height="30" as="geometry">
            <mxRectangle width="30" height="30" as="alternateBounds" />
          </mxGeometry>
        </mxCell>
        <mxCell id="d_pu53hUmGRTe69JMyzy-177" value="id" style="shape=partialRectangle;connectable=0;fillColor=none;top=0;left=0;bottom=0;right=0;align=left;spacingLeft=6;fontStyle=1;overflow=hidden;sketch=1;fontSize=18;" vertex="1" parent="d_pu53hUmGRTe69JMyzy-175">
          <mxGeometry x="30" width="150" height="30" as="geometry">
            <mxRectangle width="150" height="30" as="alternateBounds" />
          </mxGeometry>
        </mxCell>
        <mxCell id="d_pu53hUmGRTe69JMyzy-178" value="BIGSERIAL" style="shape=partialRectangle;connectable=0;fillColor=none;top=0;left=0;bottom=0;right=0;align=left;spacingLeft=6;fontStyle=1;overflow=hidden;sketch=1;fontSize=18;" vertex="1" parent="d_pu53hUmGRTe69JMyzy-175">
          <mxGeometry x="180" width="150" height="30" as="geometry">
            <mxRectangle width="150" height="30" as="alternateBounds" />
          </mxGeometry>
        </mxCell>
        <mxCell id="d_pu53hUmGRTe69JMyzy-225" style="shape=partialRectangle;connectable=0;fillColor=none;top=0;left=0;bottom=0;right=0;align=left;spacingLeft=6;fontStyle=1;overflow=hidden;sketch=1;fontSize=18;" vertex="1" parent="d_pu53hUmGRTe69JMyzy-175">
          <mxGeometry x="330" width="90" height="30" as="geometry">
            <mxRectangle width="90" height="30" as="alternateBounds" />
          </mxGeometry>
        </mxCell>
        <mxCell id="d_pu53hUmGRTe69JMyzy-179" style="shape=partialRectangle;connectable=0;fillColor=none;top=0;left=0;bottom=0;right=0;align=left;spacingLeft=6;fontStyle=1;overflow=hidden;sketch=1;fontSize=18;" vertex="1" parent="d_pu53hUmGRTe69JMyzy-175">
          <mxGeometry x="420" width="110" height="30" as="geometry">
            <mxRectangle width="110" height="30" as="alternateBounds" />
          </mxGeometry>
        </mxCell>
        <mxCell id="d_pu53hUmGRTe69JMyzy-180" style="shape=tableRow;horizontal=0;startSize=0;swimlaneHead=0;swimlaneBody=0;fillColor=none;collapsible=0;dropTarget=0;points=[[0,0.5],[1,0.5]];portConstraint=eastwest;top=0;left=0;right=0;bottom=0;sketch=1;fontSize=18;" vertex="1" parent="d_pu53hUmGRTe69JMyzy-174">
          <mxGeometry y="60" width="530" height="30" as="geometry" />
        </mxCell>
        <mxCell id="d_pu53hUmGRTe69JMyzy-181" style="shape=partialRectangle;connectable=0;fillColor=none;top=0;left=0;bottom=0;right=0;editable=1;overflow=hidden;sketch=1;fontSize=18;" vertex="1" parent="d_pu53hUmGRTe69JMyzy-180">
          <mxGeometry width="30" height="30" as="geometry">
            <mxRectangle width="30" height="30" as="alternateBounds" />
          </mxGeometry>
        </mxCell>
        <mxCell id="d_pu53hUmGRTe69JMyzy-182" value="name" style="shape=partialRectangle;connectable=0;fillColor=none;top=0;left=0;bottom=0;right=0;align=left;spacingLeft=6;overflow=hidden;sketch=1;fontSize=18;" vertex="1" parent="d_pu53hUmGRTe69JMyzy-180">
          <mxGeometry x="30" width="150" height="30" as="geometry">
            <mxRectangle width="150" height="30" as="alternateBounds" />
          </mxGeometry>
        </mxCell>
        <mxCell id="d_pu53hUmGRTe69JMyzy-183" value="TEXT" style="shape=partialRectangle;connectable=0;fillColor=none;top=0;left=0;bottom=0;right=0;align=left;spacingLeft=6;overflow=hidden;sketch=1;fontSize=18;" vertex="1" parent="d_pu53hUmGRTe69JMyzy-180">
          <mxGeometry x="180" width="150" height="30" as="geometry">
            <mxRectangle width="150" height="30" as="alternateBounds" />
          </mxGeometry>
        </mxCell>
        <mxCell id="d_pu53hUmGRTe69JMyzy-226" style="shape=partialRectangle;connectable=0;fillColor=none;top=0;left=0;bottom=0;right=0;align=left;spacingLeft=6;overflow=hidden;sketch=1;fontSize=18;" vertex="1" parent="d_pu53hUmGRTe69JMyzy-180">
          <mxGeometry x="330" width="90" height="30" as="geometry">
            <mxRectangle width="90" height="30" as="alternateBounds" />
          </mxGeometry>
        </mxCell>
        <mxCell id="d_pu53hUmGRTe69JMyzy-184" value="NOT NULL" style="shape=partialRectangle;connectable=0;fillColor=none;top=0;left=0;bottom=0;right=0;align=left;spacingLeft=6;overflow=hidden;sketch=1;fontSize=18;" vertex="1" parent="d_pu53hUmGRTe69JMyzy-180">
          <mxGeometry x="420" width="110" height="30" as="geometry">
            <mxRectangle width="110" height="30" as="alternateBounds" />
          </mxGeometry>
        </mxCell>
        <mxCell id="d_pu53hUmGRTe69JMyzy-185" value="" style="shape=tableRow;horizontal=0;startSize=0;swimlaneHead=0;swimlaneBody=0;fillColor=none;collapsible=0;dropTarget=0;points=[[0,0.5],[1,0.5]];portConstraint=eastwest;top=0;left=0;right=0;bottom=0;sketch=1;fontSize=18;" vertex="1" parent="d_pu53hUmGRTe69JMyzy-174">
          <mxGeometry y="90" width="530" height="30" as="geometry" />
        </mxCell>
        <mxCell id="d_pu53hUmGRTe69JMyzy-186" value="" style="shape=partialRectangle;connectable=0;fillColor=none;top=0;left=0;bottom=0;right=0;editable=1;overflow=hidden;sketch=1;fontSize=18;" vertex="1" parent="d_pu53hUmGRTe69JMyzy-185">
          <mxGeometry width="30" height="30" as="geometry">
            <mxRectangle width="30" height="30" as="alternateBounds" />
          </mxGeometry>
        </mxCell>
        <mxCell id="d_pu53hUmGRTe69JMyzy-187" value="username" style="shape=partialRectangle;connectable=0;fillColor=none;top=0;left=0;bottom=0;right=0;align=left;spacingLeft=6;overflow=hidden;sketch=1;fontSize=18;" vertex="1" parent="d_pu53hUmGRTe69JMyzy-185">
          <mxGeometry x="30" width="150" height="30" as="geometry">
            <mxRectangle width="150" height="30" as="alternateBounds" />
          </mxGeometry>
        </mxCell>
        <mxCell id="d_pu53hUmGRTe69JMyzy-188" value="TEXT" style="shape=partialRectangle;connectable=0;fillColor=none;top=0;left=0;bottom=0;right=0;align=left;spacingLeft=6;overflow=hidden;sketch=1;fontSize=18;" vertex="1" parent="d_pu53hUmGRTe69JMyzy-185">
          <mxGeometry x="180" width="150" height="30" as="geometry">
            <mxRectangle width="150" height="30" as="alternateBounds" />
          </mxGeometry>
        </mxCell>
        <mxCell id="d_pu53hUmGRTe69JMyzy-227" value="UNIQUE" style="shape=partialRectangle;connectable=0;fillColor=none;top=0;left=0;bottom=0;right=0;align=left;spacingLeft=6;overflow=hidden;sketch=1;fontSize=18;" vertex="1" parent="d_pu53hUmGRTe69JMyzy-185">
          <mxGeometry x="330" width="90" height="30" as="geometry">
            <mxRectangle width="90" height="30" as="alternateBounds" />
          </mxGeometry>
        </mxCell>
        <mxCell id="d_pu53hUmGRTe69JMyzy-189" value="NOT NULL" style="shape=partialRectangle;connectable=0;fillColor=none;top=0;left=0;bottom=0;right=0;align=left;spacingLeft=6;overflow=hidden;sketch=1;fontSize=18;" vertex="1" parent="d_pu53hUmGRTe69JMyzy-185">
          <mxGeometry x="420" width="110" height="30" as="geometry">
            <mxRectangle width="110" height="30" as="alternateBounds" />
          </mxGeometry>
        </mxCell>
        <mxCell id="d_pu53hUmGRTe69JMyzy-190" value="" style="shape=tableRow;horizontal=0;startSize=0;swimlaneHead=0;swimlaneBody=0;fillColor=none;collapsible=0;dropTarget=0;points=[[0,0.5],[1,0.5]];portConstraint=eastwest;top=0;left=0;right=0;bottom=0;sketch=1;fontSize=18;" vertex="1" parent="d_pu53hUmGRTe69JMyzy-174">
          <mxGeometry y="120" width="530" height="30" as="geometry" />
        </mxCell>
        <mxCell id="d_pu53hUmGRTe69JMyzy-191" value="" style="shape=partialRectangle;connectable=0;fillColor=none;top=0;left=0;bottom=0;right=0;editable=1;overflow=hidden;sketch=1;fontSize=18;" vertex="1" parent="d_pu53hUmGRTe69JMyzy-190">
          <mxGeometry width="30" height="30" as="geometry">
            <mxRectangle width="30" height="30" as="alternateBounds" />
          </mxGeometry>
        </mxCell>
        <mxCell id="d_pu53hUmGRTe69JMyzy-192" value="email" style="shape=partialRectangle;connectable=0;fillColor=none;top=0;left=0;bottom=0;right=0;align=left;spacingLeft=6;overflow=hidden;sketch=1;fontSize=18;" vertex="1" parent="d_pu53hUmGRTe69JMyzy-190">
          <mxGeometry x="30" width="150" height="30" as="geometry">
            <mxRectangle width="150" height="30" as="alternateBounds" />
          </mxGeometry>
        </mxCell>
        <mxCell id="d_pu53hUmGRTe69JMyzy-193" value="TEXT" style="shape=partialRectangle;connectable=0;fillColor=none;top=0;left=0;bottom=0;right=0;align=left;spacingLeft=6;overflow=hidden;sketch=1;fontSize=18;" vertex="1" parent="d_pu53hUmGRTe69JMyzy-190">
          <mxGeometry x="180" width="150" height="30" as="geometry">
            <mxRectangle width="150" height="30" as="alternateBounds" />
          </mxGeometry>
        </mxCell>
        <mxCell id="d_pu53hUmGRTe69JMyzy-228" value="UNIQUE" style="shape=partialRectangle;connectable=0;fillColor=none;top=0;left=0;bottom=0;right=0;align=left;spacingLeft=6;overflow=hidden;sketch=1;fontSize=18;" vertex="1" parent="d_pu53hUmGRTe69JMyzy-190">
          <mxGeometry x="330" width="90" height="30" as="geometry">
            <mxRectangle width="90" height="30" as="alternateBounds" />
          </mxGeometry>
        </mxCell>
        <mxCell id="d_pu53hUmGRTe69JMyzy-194" value="NOT NULL" style="shape=partialRectangle;connectable=0;fillColor=none;top=0;left=0;bottom=0;right=0;align=left;spacingLeft=6;overflow=hidden;sketch=1;fontSize=18;" vertex="1" parent="d_pu53hUmGRTe69JMyzy-190">
          <mxGeometry x="420" width="110" height="30" as="geometry">
            <mxRectangle width="110" height="30" as="alternateBounds" />
          </mxGeometry>
        </mxCell>
        <mxCell id="d_pu53hUmGRTe69JMyzy-195" style="shape=tableRow;horizontal=0;startSize=0;swimlaneHead=0;swimlaneBody=0;fillColor=none;collapsible=0;dropTarget=0;points=[[0,0.5],[1,0.5]];portConstraint=eastwest;top=0;left=0;right=0;bottom=0;sketch=1;fontSize=18;" vertex="1" parent="d_pu53hUmGRTe69JMyzy-174">
          <mxGeometry y="150" width="530" height="30" as="geometry" />
        </mxCell>
        <mxCell id="d_pu53hUmGRTe69JMyzy-196" style="shape=partialRectangle;connectable=0;fillColor=none;top=0;left=0;bottom=0;right=0;editable=1;overflow=hidden;sketch=1;fontSize=18;" vertex="1" parent="d_pu53hUmGRTe69JMyzy-195">
          <mxGeometry width="30" height="30" as="geometry">
            <mxRectangle width="30" height="30" as="alternateBounds" />
          </mxGeometry>
        </mxCell>
        <mxCell id="d_pu53hUmGRTe69JMyzy-197" value="photo_path" style="shape=partialRectangle;connectable=0;fillColor=none;top=0;left=0;bottom=0;right=0;align=left;spacingLeft=6;overflow=hidden;sketch=1;fontSize=18;" vertex="1" parent="d_pu53hUmGRTe69JMyzy-195">
          <mxGeometry x="30" width="150" height="30" as="geometry">
            <mxRectangle width="150" height="30" as="alternateBounds" />
          </mxGeometry>
        </mxCell>
        <mxCell id="d_pu53hUmGRTe69JMyzy-198" value="TEXT" style="shape=partialRectangle;connectable=0;fillColor=none;top=0;left=0;bottom=0;right=0;align=left;spacingLeft=6;overflow=hidden;sketch=1;fontSize=18;" vertex="1" parent="d_pu53hUmGRTe69JMyzy-195">
          <mxGeometry x="180" width="150" height="30" as="geometry">
            <mxRectangle width="150" height="30" as="alternateBounds" />
          </mxGeometry>
        </mxCell>
        <mxCell id="d_pu53hUmGRTe69JMyzy-229" style="shape=partialRectangle;connectable=0;fillColor=none;top=0;left=0;bottom=0;right=0;align=left;spacingLeft=6;overflow=hidden;sketch=1;fontSize=18;" vertex="1" parent="d_pu53hUmGRTe69JMyzy-195">
          <mxGeometry x="330" width="90" height="30" as="geometry">
            <mxRectangle width="90" height="30" as="alternateBounds" />
          </mxGeometry>
        </mxCell>
        <mxCell id="d_pu53hUmGRTe69JMyzy-199" value="" style="shape=partialRectangle;connectable=0;fillColor=none;top=0;left=0;bottom=0;right=0;align=left;spacingLeft=6;overflow=hidden;sketch=1;fontSize=18;" vertex="1" parent="d_pu53hUmGRTe69JMyzy-195">
          <mxGeometry x="420" width="110" height="30" as="geometry">
            <mxRectangle width="110" height="30" as="alternateBounds" />
          </mxGeometry>
        </mxCell>
        <mxCell id="d_pu53hUmGRTe69JMyzy-205" style="shape=tableRow;horizontal=0;startSize=0;swimlaneHead=0;swimlaneBody=0;fillColor=none;collapsible=0;dropTarget=0;points=[[0,0.5],[1,0.5]];portConstraint=eastwest;top=0;left=0;right=0;bottom=0;sketch=1;fontSize=18;" vertex="1" parent="d_pu53hUmGRTe69JMyzy-174">
          <mxGeometry y="180" width="530" height="30" as="geometry" />
        </mxCell>
        <mxCell id="d_pu53hUmGRTe69JMyzy-206" style="shape=partialRectangle;connectable=0;fillColor=none;top=0;left=0;bottom=0;right=0;editable=1;overflow=hidden;sketch=1;fontSize=18;" vertex="1" parent="d_pu53hUmGRTe69JMyzy-205">
          <mxGeometry width="30" height="30" as="geometry">
            <mxRectangle width="30" height="30" as="alternateBounds" />
          </mxGeometry>
        </mxCell>
        <mxCell id="d_pu53hUmGRTe69JMyzy-207" value="password_hash" style="shape=partialRectangle;connectable=0;fillColor=none;top=0;left=0;bottom=0;right=0;align=left;spacingLeft=6;overflow=hidden;sketch=1;fontSize=18;" vertex="1" parent="d_pu53hUmGRTe69JMyzy-205">
          <mxGeometry x="30" width="150" height="30" as="geometry">
            <mxRectangle width="150" height="30" as="alternateBounds" />
          </mxGeometry>
        </mxCell>
        <mxCell id="d_pu53hUmGRTe69JMyzy-208" value="TEXT" style="shape=partialRectangle;connectable=0;fillColor=none;top=0;left=0;bottom=0;right=0;align=left;spacingLeft=6;overflow=hidden;sketch=1;fontSize=18;" vertex="1" parent="d_pu53hUmGRTe69JMyzy-205">
          <mxGeometry x="180" width="150" height="30" as="geometry">
            <mxRectangle width="150" height="30" as="alternateBounds" />
          </mxGeometry>
        </mxCell>
        <mxCell id="d_pu53hUmGRTe69JMyzy-230" style="shape=partialRectangle;connectable=0;fillColor=none;top=0;left=0;bottom=0;right=0;align=left;spacingLeft=6;overflow=hidden;sketch=1;fontSize=18;" vertex="1" parent="d_pu53hUmGRTe69JMyzy-205">
          <mxGeometry x="330" width="90" height="30" as="geometry">
            <mxRectangle width="90" height="30" as="alternateBounds" />
          </mxGeometry>
        </mxCell>
        <mxCell id="d_pu53hUmGRTe69JMyzy-209" value="NOT NULL" style="shape=partialRectangle;connectable=0;fillColor=none;top=0;left=0;bottom=0;right=0;align=left;spacingLeft=6;overflow=hidden;sketch=1;fontSize=18;" vertex="1" parent="d_pu53hUmGRTe69JMyzy-205">
          <mxGeometry x="420" width="110" height="30" as="geometry">
            <mxRectangle width="110" height="30" as="alternateBounds" />
          </mxGeometry>
        </mxCell>
        <mxCell id="d_pu53hUmGRTe69JMyzy-220" style="shape=tableRow;horizontal=0;startSize=0;swimlaneHead=0;swimlaneBody=0;fillColor=none;collapsible=0;dropTarget=0;points=[[0,0.5],[1,0.5]];portConstraint=eastwest;top=0;left=0;right=0;bottom=0;sketch=1;fontSize=18;" vertex="1" parent="d_pu53hUmGRTe69JMyzy-174">
          <mxGeometry y="210" width="530" height="30" as="geometry" />
        </mxCell>
        <mxCell id="d_pu53hUmGRTe69JMyzy-221" style="shape=partialRectangle;connectable=0;fillColor=none;top=0;left=0;bottom=0;right=0;editable=1;overflow=hidden;sketch=1;fontSize=18;" vertex="1" parent="d_pu53hUmGRTe69JMyzy-220">
          <mxGeometry width="30" height="30" as="geometry">
            <mxRectangle width="30" height="30" as="alternateBounds" />
          </mxGeometry>
        </mxCell>
        <mxCell id="d_pu53hUmGRTe69JMyzy-222" value="created_at" style="shape=partialRectangle;connectable=0;fillColor=none;top=0;left=0;bottom=0;right=0;align=left;spacingLeft=6;overflow=hidden;sketch=1;fontSize=18;" vertex="1" parent="d_pu53hUmGRTe69JMyzy-220">
          <mxGeometry x="30" width="150" height="30" as="geometry">
            <mxRectangle width="150" height="30" as="alternateBounds" />
          </mxGeometry>
        </mxCell>
        <mxCell id="d_pu53hUmGRTe69JMyzy-223" value="TIMESTAMP" style="shape=partialRectangle;connectable=0;fillColor=none;top=0;left=0;bottom=0;right=0;align=left;spacingLeft=6;overflow=hidden;sketch=1;fontSize=18;" vertex="1" parent="d_pu53hUmGRTe69JMyzy-220">
          <mxGeometry x="180" width="150" height="30" as="geometry">
            <mxRectangle width="150" height="30" as="alternateBounds" />
          </mxGeometry>
        </mxCell>
        <mxCell id="d_pu53hUmGRTe69JMyzy-231" style="shape=partialRectangle;connectable=0;fillColor=none;top=0;left=0;bottom=0;right=0;align=left;spacingLeft=6;overflow=hidden;sketch=1;fontSize=18;" vertex="1" parent="d_pu53hUmGRTe69JMyzy-220">
          <mxGeometry x="330" width="90" height="30" as="geometry">
            <mxRectangle width="90" height="30" as="alternateBounds" />
          </mxGeometry>
        </mxCell>
        <mxCell id="d_pu53hUmGRTe69JMyzy-224" value="NOT NULL" style="shape=partialRectangle;connectable=0;fillColor=none;top=0;left=0;bottom=0;right=0;align=left;spacingLeft=6;overflow=hidden;sketch=1;fontSize=18;" vertex="1" parent="d_pu53hUmGRTe69JMyzy-220">
          <mxGeometry x="420" width="110" height="30" as="geometry">
            <mxRectangle width="110" height="30" as="alternateBounds" />
          </mxGeometry>
        </mxCell>
      </root>
    </mxGraphModel>
  </diagram>
</mxfile>
